# xmcd CD database file
#
# Track frame offsets:
#	150
#	25297
#	52482
#	88345
#	120807
#	153972
#	174912
#	212492
#
# Disc length: 3392 seconds
#
# Revision: 0
# Processed by: cddbd v1.4PL0 Copyright (c) Steve Scherf et al.
# Submitted via: CDex 1.51
#
DISCID=620d3e08
DTITLE=HERBIE HANCOCK - WE LOVE HERBIE
DYEAR=1995
DGENRE=Jazz
TTITLE0=CANTALOUPE ISLAND
TTITLE1=THE EYE OF THE HURRICANE
TTITLE2=MAIDEN VOYAGE
TTITLE3=WATERMELON MAN
TTITLE4=ONE FINGER SNAP
TTITLE5=RIOT
TTITLE6=BLIND MAN, BLIND MAN
TTITLE7=DOLPHIN DANCE
EXTD=YEAR: 1995
EXTT0=
EXTT1=
EXTT2=
EXTT3=
EXTT4=
EXTT5=
EXTT6=
EXTT7=
PLAYORDER=
